<?xml version="1.0" encoding="UTF-8" standalone="no"?>
<svg
   xmlns:dc="http://purl.org/dc/elements/1.1/"
   xmlns:cc="http://creativecommons.org/ns#"
   xmlns:rdf="http://www.w3.org/1999/02/22-rdf-syntax-ns#"
   xmlns:svg="http://www.w3.org/2000/svg"
   xmlns="http://www.w3.org/2000/svg"
   xmlns:sodipodi="http://sodipodi.sourceforge.net/DTD/sodipodi-0.dtd"
   xmlns:inkscape="http://www.inkscape.org/namespaces/inkscape"
   height="270"
   width="270"
   xml:space="preserve"
   viewBox="0 0 270 270"
   y="0px"
   x="0px"
   id="Layer_1"
   version="1.1"
   sodipodi:docname="logo_veg_source.svg"
   inkscape:version="0.92.4 5da689c313, 2019-01-14"
   inkscape:export-filename="/home/spydon/AndroidStudioProjects/MindLevel/app/src/main/res/drawable/logo_small.png"
   inkscape:export-xdpi="21.33"
   inkscape:export-ydpi="21.33"><sodipodi:namedview
     pagecolor="#ffffff"
     bordercolor="#666666"
     borderopacity="1"
     objecttolerance="10"
     gridtolerance="10"
     guidetolerance="10"
     inkscape:pageopacity="0"
     inkscape:pageshadow="2"
     inkscape:window-width="1583"
     inkscape:window-height="1417"
     id="namedview42"
     showgrid="false"
     inkscape:pagecheckerboard="true"
     inkscape:zoom="3.562963"
     inkscape:cx="142.99896"
     inkscape:cy="135"
     inkscape:window-x="0"
     inkscape:window-y="19"
     inkscape:window-maximized="0"
     inkscape:current-layer="Layer_1" /><metadata
     id="metadata41"><rdf:RDF><cc:Work
         rdf:about=""><dc:format>image/svg+xml</dc:format><dc:type
           rdf:resource="http://purl.org/dc/dcmitype/StillImage" /><dc:title></dc:title></cc:Work></rdf:RDF></metadata><defs
     id="defs39" /><style
     id="style2"
     type="text/css">
	.st0{fill:url(#XMLID_3_);}
	.st1{fill:url(#XMLID_8_);}
	.st2{fill:url(#XMLID_11_);}
	.st3{fill:url(#XMLID_12_);}
	.st4{fill:url(#XMLID_13_);}
	.st5{fill:#000066;}
</style><linearGradient
     y2="562.34229"
     x2="641.04199"
     y1="338.33331"
     x1="641.04199"
     gradientUnits="userSpaceOnUse"
     id="XMLID_3_"><stop
       id="stop4"
       style="stop-color:#0066CC"
       offset="2.150538e-002" /><stop
       id="stop6"
       style="stop-color:#003399"
       offset="1" /></linearGradient><polygon
     transform="translate(-505,-314.00001)"
     style="fill:url(#XMLID_3_)"
     points="517.6,339 624.8,560 654.2,560 764.5,339 705,339 639.7,478.6 574.7,339 "
     class="st0"
     id="XMLID_4_" /><linearGradient
     y2="513.49512"
     x2="530"
     y1="690"
     x1="530"
     gradientUnits="userSpaceOnUse"
     id="XMLID_8_"><stop
       id="stop10"
       style="stop-color:#0066CC"
       offset="2.150538e-002" /><stop
       id="stop12"
       style="stop-color:#0066FF"
       offset="1" /></linearGradient><polygon
     transform="translate(-505,-314.00001)"
     style="fill:url(#XMLID_8_)"
     points="555,440.1 505.6,339 505,339 505,560 555,560 "
     class="st1"
     id="XMLID_6_" /><linearGradient
     y2="513.28461"
     x2="750.5"
     y1="690.58832"
     x1="750.5"
     gradientUnits="userSpaceOnUse"
     id="XMLID_11_"><stop
       id="stop16"
       style="stop-color:#0066CC"
       offset="2.150538e-002" /><stop
       id="stop18"
       style="stop-color:#0066FF"
       offset="1" /></linearGradient><polygon
     transform="translate(-505,-314.00001)"
     style="fill:url(#XMLID_11_)"
     points="726,435.3 726,560 775,560 775,338 "
     class="st2"
     id="XMLID_5_" /><linearGradient
     y2="557.88538"
     x2="750.75"
     y1="338.01031"
     x1="750.75"
     gradientUnits="userSpaceOnUse"
     id="XMLID_12_"><stop
       id="stop22"
       style="stop-color:#0066CC"
       offset="2.150538e-002" /><stop
       id="stop24"
       style="stop-color:#003399"
       offset="1" /></linearGradient><polygon
     transform="translate(-505,-314.00001)"
     style="fill:url(#XMLID_12_)"
     points="775.5,339 764.5,339 726,414.2 726,435.3 "
     class="st3"
     id="XMLID_7_" /><linearGradient
     y2="559.88342"
     x2="530.25"
     y1="337.01959"
     x1="530.25"
     gradientUnits="userSpaceOnUse"
     id="XMLID_13_"><stop
       id="stop28"
       style="stop-color:#0066CC"
       offset="2.150538e-002" /><stop
       id="stop30"
       style="stop-color:#003399"
       offset="1" /></linearGradient><polygon
     transform="translate(-505,-314.00001)"
     style="fill:url(#XMLID_13_)"
     points="505.5,339 518.4,339 555,415.6 555,440.1 "
     class="st4"
     id="XMLID_2_" /><polygon
     transform="translate(-505,-314.00001)"
     style="fill:#000066"
     points="775,337.9 726,452 726,414 "
     class="st5"
     id="XMLID_9_" /><polygon
     transform="translate(-505,-314.00001)"
     style="fill:#000066"
     points="505.1,338 555,455 555,417 "
     class="st5"
     id="XMLID_10_" /><g
     id="g123"
     style="fill:#83bf4f"
     transform="matrix(3.2332718,0,0,3.2332718,62.535383,39.070595)"><path
       id="path119"
       d="m 48.531,38.42 c -8.01,0 -10.145,-6.625 -10.145,-6.625 0,0 2.139,-8.259 10.145,-8.259 5.517,0 14.469,7.441 14.469,7.441 0,0 -8.952,7.443 -14.469,7.443" /><path
       id="path121"
       d="m 18.027,6.665 c 6.253,6.351 2.551,13.592 2.551,13.592 0,0 -7.746,4.385 -14,-1.966 C 2.269,13.915 1,1 1,1 1,1 13.718,2.289 18.027,6.665 Z" /></g><g
     id="g129"
     style="fill:#75a843"
     transform="matrix(3.2332718,0,0,3.2332718,62.535383,39.070595)"><path
       id="path125"
       d="m 63,30.976 c -4.974,-1.04 -10.09,-1.581 -15.08,-1.024 -4.946,0.535 -9.854,2.298 -13.231,5.7 -1.673,1.677 -2.945,3.735 -3.528,5.925 -0.144,0.545 -0.25,1.095 -0.298,1.641 -0.055,0.567 -0.043,1.019 -0.002,1.703 L 31.05,48.736 31.804,64 h -5 l 0.755,-15.265 0.189,-3.815 c 0.027,-0.588 0.054,-1.411 0.186,-2.104 0.119,-0.716 0.308,-1.408 0.539,-2.077 0.938,-2.679 2.635,-4.963 4.685,-6.738 2.058,-1.781 4.474,-3.044 6.979,-3.862 2.511,-0.823 5.115,-1.21 7.699,-1.31 5.182,-0.191 10.274,0.745 15.16,2.147" /><path
       id="path127"
       d="m 1,1 c 5.25,3.174 9.967,7.219 14.203,11.693 4.224,4.494 8.02,9.418 11.148,14.805 1.541,2.711 2.972,5.501 3.863,8.655 0.216,0.794 0.389,1.618 0.458,2.512 l 0.107,2.361 0.206,4.595 L 31.809,64 h -5 l 0.823,-18.38 0.206,-4.595 0.051,-1.149 c 0.014,-0.366 0.042,-0.809 0.039,-1.085 -0.011,-0.636 -0.107,-1.327 -0.255,-2.02 C 27.06,33.975 25.847,31.176 24.51,28.493 21.781,23.115 18.332,18.053 14.42,13.393 10.494,8.744 6.058,4.471 0.998,1.004" /></g></svg>